<svg width="10" height="10" viewBox="0 0 10 10" fill="none" xmlns="http://www.w3.org/2000/svg">
<path d="M3.41795 1.86755L3.37818 1.36914L3.41795 1.86755ZM3.9037 1.66635L3.57939 1.28579V1.28579L3.9037 1.66635ZM1.92427 2.70725L2.42269 2.74702L1.92427 2.70725ZM2.70725 1.92427L2.74702 2.42269L2.70725 1.92427ZM1.66635 3.9037L1.28579 3.57939H1.28579L1.66635 3.9037ZM1.86755 3.41795L1.36914 3.37818L1.86755 3.41795ZM1.20391 5.55365L1.58447 5.22934L1.58447 5.22934L1.20391 5.55365ZM1.20391 4.44635L1.58447 4.77066H1.58447L1.20391 4.44635ZM1.86755 6.58204L2.36597 6.54227L1.86755 6.58204ZM1.66635 6.0963L1.28579 6.42061H1.28579L1.66635 6.0963ZM2.70725 8.07573L2.66747 8.57415H2.66747L2.70725 8.07573ZM1.92427 7.29275L1.42585 7.33253L1.92427 7.29275ZM3.9037 8.33365L4.22801 7.95309L4.22801 7.95309L3.9037 8.33365ZM3.41795 8.13244L3.45773 7.63403H3.45773L3.41795 8.13244ZM5.55365 8.79609L5.87796 9.17665H5.87796L5.55365 8.79609ZM4.44635 8.79609L4.12204 9.17665H4.12204L4.44635 8.79609ZM6.58204 8.13244L6.54227 7.63403H6.54227L6.58204 8.13244ZM6.0963 8.33365L5.77199 7.95309V7.95309L6.0963 8.33365ZM8.07573 7.29275L8.57415 7.33253V7.33253L8.07573 7.29275ZM7.29275 8.07573L7.33253 8.57415H7.33253L7.29275 8.07573ZM8.33365 6.0963L7.95309 5.77199H7.95309L8.33365 6.0963ZM8.13244 6.58204L7.63403 6.54227V6.54227L8.13244 6.58204ZM8.79609 4.44635L9.17665 4.12204V4.12204L8.79609 4.44635ZM8.79609 5.55365L9.17665 5.87796V5.87796L8.79609 5.55365ZM8.13244 3.41795L7.63403 3.45773V3.45773L8.13244 3.41795ZM8.33365 3.9037L7.95309 4.22801L7.95309 4.22801L8.33365 3.9037ZM7.29275 1.92427L7.33253 1.42585L7.29275 1.92427ZM8.07573 2.70725L8.57415 2.66747V2.66747L8.07573 2.70725ZM6.0963 1.66635L6.42061 1.28579V1.28579L6.0963 1.66635ZM6.58204 1.86755L6.54227 2.36597L6.58204 1.86755ZM5.55365 1.20391L5.22934 1.58447L5.22934 1.58447L5.55365 1.20391ZM4.44635 1.20391L4.77066 1.58447V1.58447L4.44635 1.20391ZM6.68689 4.46466C6.88215 4.2694 6.88215 3.95282 6.68689 3.75756C6.49162 3.5623 6.17504 3.5623 5.97978 3.75756L6.68689 4.46466ZM4.55556 5.88889L4.202 6.24244C4.39726 6.4377 4.71385 6.4377 4.90911 6.24244L4.55556 5.88889ZM4.02022 4.64645C3.82496 4.45118 3.50838 4.45118 3.31311 4.64645C3.11785 4.84171 3.11785 5.15829 3.31311 5.35355L4.02022 4.64645ZM5.22934 1.58447L5.77199 2.04691L6.42061 1.28579L5.87796 0.823351L5.22934 1.58447ZM6.54227 2.36597L7.25298 2.42269L7.33253 1.42585L6.62182 1.36914L6.54227 2.36597ZM7.57731 2.74702L7.63403 3.45773L8.63086 3.37818L8.57415 2.66747L7.57731 2.74702ZM7.95309 4.22801L8.41553 4.77066L9.17665 4.12204L8.7142 3.57939L7.95309 4.22801ZM8.41553 5.22934L7.95309 5.77199L8.7142 6.42061L9.17665 5.87796L8.41553 5.22934ZM7.63403 6.54227L7.57731 7.25298L8.57415 7.33253L8.63086 6.62182L7.63403 6.54227ZM7.25298 7.57731L6.54227 7.63403L6.62182 8.63086L7.33253 8.57415L7.25298 7.57731ZM5.77199 7.95309L5.22934 8.41553L5.87796 9.17665L6.42061 8.7142L5.77199 7.95309ZM4.77066 8.41553L4.22801 7.95309L3.57939 8.7142L4.12204 9.17665L4.77066 8.41553ZM3.45773 7.63403L2.74702 7.57731L2.66747 8.57415L3.37818 8.63086L3.45773 7.63403ZM2.42269 7.25298L2.36597 6.54227L1.36914 6.62182L1.42585 7.33253L2.42269 7.25298ZM2.04691 5.77199L1.58447 5.22934L0.823351 5.87796L1.28579 6.42061L2.04691 5.77199ZM1.58447 4.77066L2.04691 4.22801L1.28579 3.57939L0.823351 4.12204L1.58447 4.77066ZM2.36597 3.45773L2.42269 2.74702L1.42585 2.66747L1.36914 3.37818L2.36597 3.45773ZM2.74702 2.42269L3.45773 2.36597L3.37818 1.36914L2.66747 1.42585L2.74702 2.42269ZM4.22801 2.04691L4.77066 1.58447L4.12204 0.823351L3.57939 1.28579L4.22801 2.04691ZM3.45773 2.36597C3.74166 2.34331 4.01122 2.23166 4.22801 2.04691L3.57939 1.28579C3.52276 1.33405 3.45235 1.36322 3.37818 1.36914L3.45773 2.36597ZM2.42269 2.74702C2.4365 2.57394 2.57394 2.4365 2.74702 2.42269L2.66747 1.42585C2.00488 1.47873 1.47873 2.00488 1.42585 2.66747L2.42269 2.74702ZM2.04691 4.22801C2.23166 4.01122 2.34331 3.74166 2.36597 3.45773L1.36914 3.37818C1.36322 3.45235 1.33405 3.52276 1.28579 3.57939L2.04691 4.22801ZM1.58447 5.22934C1.47184 5.09718 1.47184 4.90281 1.58447 4.77066L0.823351 4.12204C0.392216 4.62795 0.392216 5.37204 0.823351 5.87796L1.58447 5.22934ZM2.36597 6.54227C2.34331 6.25833 2.23166 5.98878 2.04691 5.77199L1.28579 6.42061C1.33405 6.47724 1.36322 6.54765 1.36914 6.62182L2.36597 6.54227ZM2.74702 7.57731C2.57394 7.5635 2.4365 7.42606 2.42269 7.25298L1.42585 7.33253C1.47873 7.99512 2.00488 8.52127 2.66747 8.57415L2.74702 7.57731ZM4.22801 7.95309C4.01122 7.76834 3.74166 7.65669 3.45773 7.63403L3.37818 8.63086C3.45235 8.63678 3.52276 8.66594 3.57939 8.7142L4.22801 7.95309ZM5.22934 8.41553C5.09718 8.52815 4.90281 8.52815 4.77066 8.41553L4.12204 9.17665C4.62795 9.60778 5.37204 9.60778 5.87796 9.17665L5.22934 8.41553ZM6.54227 7.63403C6.25833 7.65669 5.98878 7.76834 5.77199 7.95309L6.42061 8.7142C6.47724 8.66594 6.54765 8.63678 6.62182 8.63086L6.54227 7.63403ZM7.57731 7.25298C7.5635 7.42606 7.42606 7.5635 7.25298 7.57731L7.33253 8.57415C7.99512 8.52127 8.52127 7.99512 8.57415 7.33253L7.57731 7.25298ZM7.95309 5.77199C7.76834 5.98878 7.65669 6.25833 7.63403 6.54227L8.63086 6.62182C8.63678 6.54765 8.66594 6.47724 8.7142 6.42061L7.95309 5.77199ZM8.41553 4.77066C8.52815 4.90281 8.52815 5.09718 8.41553 5.22934L9.17665 5.87796C9.60778 5.37204 9.60778 4.62795 9.17665 4.12204L8.41553 4.77066ZM7.63403 3.45773C7.65669 3.74166 7.76834 4.01122 7.95309 4.22801L8.7142 3.57939C8.66594 3.52276 8.63678 3.45235 8.63086 3.37818L7.63403 3.45773ZM7.25298 2.42269C7.42606 2.4365 7.5635 2.57394 7.57731 2.74702L8.57415 2.66747C8.52127 2.00488 7.99512 1.47873 7.33253 1.42585L7.25298 2.42269ZM5.77199 2.04691C5.98878 2.23166 6.25833 2.34331 6.54227 2.36597L6.62182 1.36914C6.54765 1.36322 6.47724 1.33405 6.42061 1.28579L5.77199 2.04691ZM5.87796 0.823351C5.37204 0.392216 4.62795 0.392216 4.12204 0.823351L4.77066 1.58447C4.90281 1.47184 5.09718 1.47184 5.22934 1.58447L5.87796 0.823351ZM4.90911 5.53533L4.02022 4.64645L3.31311 5.35355L4.202 6.24244L4.90911 5.53533ZM5.97978 3.75756L5.09089 4.64645L5.798 5.35355L6.68689 4.46466L5.97978 3.75756ZM5.09089 4.64645L4.202 5.53534L4.90911 6.24244L5.798 5.35355L5.09089 4.64645Z"/>
</svg>
