<svg width="101" height="82" viewBox="0 0 101 82" fill="none" xmlns="http://www.w3.org/2000/svg">
<path fill-rule="evenodd" clip-rule="evenodd" d="M3.77572 30.8563H84.4666C85.4781 30.8563 86.4372 31.2555 87.1348 31.967L99.9002 44.7573C102.255 47.1175 100.58 51.1437 97.232 51.1437H16.5412C15.5297 51.1437 14.5705 50.7445 13.873 50.033L1.10753 37.2428C-1.26419 34.8825 0.427406 30.8563 3.77572 30.8563ZM1.10753 13.901L13.873 1.11069C14.588 0.399152 15.5471 0 16.5412 0H97.2146C100.563 0 102.254 4.02624 99.8828 6.38645L87.1348 19.1767C86.4198 19.8883 85.4606 20.2874 84.4666 20.2874H3.77572C0.427406 20.2874 -1.26419 16.2612 1.10753 13.901ZM99.8828 68.0991L87.1173 80.8893C86.4023 81.6008 85.4432 82 84.4491 82H3.77572C0.427406 82 -1.26419 77.9738 1.10753 75.6135L13.873 62.8233C14.588 62.1117 15.5471 61.7126 16.5412 61.7126H97.2146C100.563 61.7126 102.254 65.7388 99.8828 68.0991Z" fill="white"/>
</svg>
